# xmcd CD database file
#
# Track frame offsets:
#	150
#	14772
#	31352
#	49330
#	65305
#	84320
#	99717
#	118897
#	138845
#	159735
#	177300
#	207487
#	230625
#	261867
#
# Disc length: 3782 seconds
#
# Revision: 2
# Processed by: cddbd v1.5.1PL0 Copyright (c) Steve Scherf et al.
# Submitted via: CDex 1.51
#
DISCID=cb0ec40e
DTITLE=BLUE MERCEDES - rich and famous
DYEAR=1988
DGENRE=Rock
TTITLE0=I Want To Be Your Property
TTITLE1=See Want I Must Have
TTITLE2=Love Is The Gun
TTITLE3=Welcome To Lovesville
TTITLE4=Your Secret Is Safe With Me
TTITLE5=I Hate New York
TTITLE6=Treehouse
TTITLE7=Heaven On Earth
TTITLE8=Run For You Love
TTITLE9=Crunchy Love Affair
TTITLE10=Property (Def B4 Dishonour USA Mix)
TTITLE11=Love Is The Gun (Miami Mix)
TTITLE12=See Want I Must Have (Funk Ass Mix)
TTITLE13=Run For Your Love (Pop Art Mix)
EXTD=YEAR: 1988
EXTT0=
EXTT1=
EXTT2=
EXTT3=
EXTT4=
EXTT5=
EXTT6=
EXTT7=
EXTT8=
EXTT9=
EXTT10=
EXTT11=
EXTT12=
EXTT13=
PLAYORDER=
